<?xml version="1.0" standalone="no"?>
<!DOCTYPE svg PUBLIC "-//W3C//DTD SVG 20010904//EN"
 "http://www.w3.org/TR/2001/REC-SVG-20010904/DTD/svg10.dtd">
<svg version="1.0" xmlns="http://www.w3.org/2000/svg"
 width="132.000000pt" height="132.000000pt" viewBox="0 0 132.000000 132.000000"
 preserveAspectRatio="xMidYMid meet">
<metadata>
Created by potrace 1.11, written by Peter Selinger 2001-2013
</metadata>
<g transform="translate(0.000000,132.000000) scale(0.100000,-0.100000)"
fill="#000000" stroke="none">
<path d="M76 1200 c-17 -8 -41 -31 -54 -50 -23 -34 -23 -35 -20 -326 l3 -293
30 -31 c43 -45 80 -52 275 -48 l175 3 0 138 1 138 -100 -3 -99 -3 -26 -65 -26
-65 -53 -3 c-38 -2 -52 1 -52 10 0 12 150 458 157 467 5 7 182 8 191 2 5 -3
22 -44 37 -91 15 -47 29 -87 31 -88 1 -2 16 6 32 18 23 17 47 23 102 25 40 2
74 6 78 9 3 3 5 42 5 86 -1 88 -17 127 -66 163 -26 20 -41 21 -309 22 -235 1
-287 -2 -312 -15z"/>
<path d="M376 990 c-52 -141 -66 -184 -62 -188 7 -6 116 -8 127 -1 5 3 -6 50
-25 105 -19 55 -37 92 -40 84z"/>
<path d="M631 852 c-19 -9 -44 -30 -55 -45 -20 -27 -21 -43 -23 -307 -3 -313
-1 -325 64 -370 l36 -24 283 -1 c271 0 284 1 311 21 15 11 38 35 49 52 21 30
22 41 20 315 -1 314 -2 316 -69 357 -30 19 -52 20 -307 20 -242 0 -279 -2
-309 -18z m339 -182 l5 -75 108 0 107 0 0 -38 c0 -36 -2 -38 -27 -37 -46 3
-77 0 -70 -6 9 -10 -28 -101 -57 -138 l-25 -33 22 -10 c13 -6 49 -16 81 -24
l58 -13 -6 -45 c-2 -25 -5 -47 -5 -48 -4 -15 -120 19 -190 55 l-36 19 -60 -28
c-65 -31 -151 -56 -160 -48 -3 3 -8 25 -11 50 l-6 44 49 12 c26 6 60 16 75 22
l27 10 -34 57 c-19 32 -38 72 -41 91 -6 34 -9 36 -59 35 -35 -1 -45 11 -36 46
7 26 8 26 112 27 l104 0 1 65 c1 36 2 70 3 76 0 6 16 10 34 10 l32 -1 5 -75z"/>
<path d="M876 522 c-20 -4 -15 -26 18 -86 26 -49 38 -53 65 -25 27 29 54 109
38 110 -46 3 -106 3 -121 1z"/>
</g>
</svg>
