<svg xmlns="http://www.w3.org/2000/svg" viewBox="0 0 506.95 506.93"><defs><style>.cls-1{opacity:0.3;}.cls-2{fill:#d1ecfb;}.cls-3{fill:#fff;}.cls-4{fill:#1695a4;}.cls-5{fill:#15b0bf;}</style></defs><title>gwtd3Asset 3</title><g id="Layer_2" data-name="Layer 2"><g id="Layer_1-2" data-name="Layer 1"><g class="cls-1"><path class="cls-2" d="M253.49,506.93c139.76,0,253.46-113.69,253.46-253.46S393.25,0,253.49,0"/><path class="cls-3" d="M253.49,0C113.72,0,0,113.72,0,253.47S113.72,506.93,253.49,506.93"/><path class="cls-4" d="M496,322.37c-3.34.08-7.68,1.65-7.75,2.79s-4.67,3.21-6.19,3.83-4.47,5.32-5.12,6.86-4.39,1.09-5.79,1.72-4.25,2.91-4.26,4.3-.78,1.23-1.72-.35l-1.83,1.92-2.16,2.41c-1.24,3.89-5.36,8.8-6.78,9.22s-1.66,7.24-1.66,10,1.07,6.17,2.38,7.57l.29,2.19.47,4.36c-.76,3.36,1.8,6.38,2.55,7s7-1.13,9.41-1.71a17,17,0,0,0,3.42-1.38,252.06,252.06,0,0,0,26.09-60.54A6.08,6.08,0,0,0,496,322.37Z"/><path class="cls-4" d="M77.44,328.87c-.35.68,4.17,5.35,5.95,6.91s5.47,9.2,6.24,11.7a18.79,18.79,0,0,1,.05,7.54c-.23,1,.85,3.07,1,3.94s-1.57,8.34-.91,11.34-3.5,12.36-3.41,17,2.2,10.71,3.05,10.25,1.14,4.24-.28,4.79-3.07,4.27-2.27,4.45-.06,3.84.16,5.31,1.44,11.12,1.71,13.51,3.71,8.27,4.43,10.26,1.45,5.76,1.74,6.33a8.81,8.81,0,0,0,.66,1.19A21.61,21.61,0,0,1,99.23,445c.83.6,6.25.22,8-.15s.15-2-.65-2.86-1.51-5.17-2.44-5.61-1.3-5.88-.49-7.09,4.06-3.14,4.41-4.15.44-5.76-.42-6.42.26-6.42-.4-9.28,5-5.47,5.31-7.74,6.41-4.71,7.79-5.85,2.58-7.65,1.92-9.06,2.25-2.52,3.55-2.52,2.75-.93,3.26-.93,2-2.89,2.86-3.55,2.56-7.54,4.06-8.66,2.78-5.28,2.78-6.5,2.31-4.84,3.07-5.93,6.45-3.7,7.47-4.1,2.56-9.57,3-12.84,2.1-7.68,2.22-8.75,1.93-2,2.27-2.36,1.7-4.53,2.58-5.49,4-4.94,4.1-5.84a36.54,36.54,0,0,1,1.07-5.08l0-2.23,0-3.57c-1-2.75-4.05-6.2-4.83-5.43s-4.3-2.44-6.1-3.12a34.76,34.76,0,0,0-7.41-1.22c-1.15,0-5.06-3.21-6.81-3.77s-6.23-1.4-7.06-1.92-1.91-7.19-5.52-9.36-9.93-7.26-10.63-9.14-7.61-5.78-9.77-7-5.37-1.46-5.77-1-3.09-3.62-4.46-4.77-5.53-2.07-5.72-1.05-2.94.49-3.59-.39-2.79.36-3.79.69-4.45,5.58-6,6.86-3.48-1.17-4.52-1.63-5,.79-6.11,1.56-3.59-5.57-3-8.49-2.61-8.71-5.09-8.87-3.23-6.24-2.74-8.5-4.45-3.66-5.68-3.8-4.34,3-4.86,4.52-11.76-2.07-10.42-8.8,6.62-13.67,7.94-14.5,8.54-1.22,10.12-.31a2.67,2.67,0,0,0,3.32-.42c.26-.42,6.14.07,7.91.78s4.26,7.49,6.08,8.33,2.49-4.38,2.78-5.65-.88-4.51-1.32-5.41,2.91-9.14,5.68-10.54,5.64-6,5.41-6.8,2.19-1.44,2.84-1.79-.1-7,1-8.44,6.23-4.49,7.88-5.18,2.85-4.9,2.27-5.63,4.2-4.85,6.71-5.64,4.66,1.44,4,1.79c.5-.28,3.94-2.07,5.42-3,1.71-1.13,0-4.25-1.09-5.18s-.43-4.51.89-4.84,2.49-3.45,2.14-4.12,5.51.54,7.74-1.12.63,4-1,6.23,1.21,4.41,2.25,4,2.16,1.2,2.38,1.84,2.47-.67,3.93,0,2.35-2,2.48-3.25-3.55-3.78-4.11-5.26-.8-10.06-.88-11.82-2.44-4.62-3.21-4.1-2.31-4.58-3.52-5.67-1.51-3.53-1.47-4.34-4.16-5.22-5.17-7.26-2.42-1.62-2.51-.69-3,1.06-4.23,1-2.19-4.76-2.19-6.52-5.43-2.05-6.32-3.47-4.42-.74-5-1.72-3.7-1.88-4.3-1.51-.34,13-.94,16.37-3.48,6.4-4.55,6.31-.41,2.42.32,2.2-2,3.71-2.41,6.3-3-.12-3.42-2.45-3-5.52-3.47-4.72-2.26-1-3-.46-5.6-2.81-7.56-3.89-3.06-7-4.16-7.56-.19-1.26-.22-2.18,3.78-4.4,4.94-5.77,5.34-6.84,7-8,3-4.29,2.68-4.87,7.11-2.88,9.12-3.58,3.73-6.27,4-7.88-1.26-4.65-2.18-5,2.79-.54,4,.09,5.06-1.13,6.57-.33,4.55,2.6,6.76,4l-.48,4.1-.9,7c-5.84,2.42-7.52,6.59-5.47,6.51s11.36,4,14,5.92,3.46-2.73,4.24-4.26.52-6-.1-6.87,3.05-.58,4.07.41,2.25-1,3-1.37,1.19-4.19,1.62-4.95-1.75-1.57-1.81-2.52-4.26-2.78-5.6-3.44-1.7-3.53-1-4-.46-4.18-1.15-5.4-5-2.2-6.5-2.2-3-3.38-3.79-3.87-6.47-1.11-7.83-.7-3.94-4-6.29-2.64-4.75-1.57-5.81-2.15S76.67,76.86,76.71,81s2.15,8.16,3,8.27-.2,3.87-1.16,4.93-3.25-1.13-2.37-2.07-2.39-5.28-3.52-7c-.79-1.28-3.65-2.41-5.58-3.18-1.13,1.22-2.24,2.48-3.33,3.73.42,1.51.93,3.47.44,5-.81,2.53-2.91,2.91-3,1.82-.06-.49-1.13-.85-2.39-1a252.44,252.44,0,0,0-57,132.49,15.33,15.33,0,0,1,3,4.24c.7,2.23,4.57,3.69,5.3,4.15s1-4.27.45-5.49.94-2,.91-1.05,3.64,5,4.84,6.55,2.46,11.16,3.61,13.23,12.31,6.38,15.92,7.12,8.11,4.78,8.83,5.94,5.46,1.75,6.49,2.2,3.47,3.72,4.49,4.39a5.53,5.53,0,0,1,1.82,3.11c0,.51,6.29,2.9,7.82,4.58s4.05,1.22,4.53.51,1.72,3.35,2.38,4.75.79,4.86.3,5.41S71,290.4,70,291.67s-3.31,10.48-2.83,12.3,3.45,5.58,4.73,6.14a1.47,1.47,0,0,1-.27,2.66c-1,.12-.54,8.93,1.83,10.24S77.79,328.19,77.44,328.87Z"/><path class="cls-4" d="M107.28,174.47h0C107.2,174.51,107.19,174.52,107.28,174.47Z"/><path class="cls-4" d="M89.95,67.57c3-.51,8.09-1.35,8.43-2.2a5.24,5.24,0,0,0-.29-3.51c.48,0,1,0,1.46,0,1.16,0,3.07-6.31,4.29-7.79s8.15-3.65,9.8-4.65,5.27-4.48,6.66-4.88,3.42-3.66,3.1-4.32,4.7-3.68,6.61-4.48,2.88-3,2.18-3.12c-.47-.07-11.06,5.47-20.75,11a255.29,255.29,0,0,0-31.19,25C83.29,68.47,88,67.91,89.95,67.57Z"/><path class="cls-4" d="M273.27,383.05c3.25-1.91,8.76-10.06,10.57-11.78s3.13-7.89,3.52-9.23,3.12-3.54,4.15-3.83,4.32-14,7.2-16.94,6.27-17.43,5.91-22.64,1.86-15.09,2.53-17.47,4.31-6.61,5.43-7.48,8.07-11.19,10.33-14.88,4.39-11.82,3.95-13.72-5.28-3.23-6.18-2.29-5.48,1.71-6.94,1.71-4.82-7.82-6.88-9.43-3.94-10.56-5.15-12.26a79.52,79.52,0,0,0-5.59-7c-1-1-1.23-5.74-1.46-7s2,.87,2.41,2.74,5.75,9.53,7.42,12.1,6,10.76,7.16,13.32,10.86,1.26,14-.22,7.1-4,7.25-4.91,5.19-3.19,6.58-4.32,2.64-7,3.55-7.92-.73-6.55-1.79-8.21-6.1-3-7.11-2.34-3.21-3.75-4-5.35-4.64-3.61-5.06-4.71,1-2.87,1.65-3.24,7.74,4.61,9.81,7.1a53,53,0,0,1,4.78,7.87c.36.79,6,1.19,7.25.27s2.7-.68,3.2.51l1.77-.31,6.17-1c2.92,3.17,3.77,5.9,3.69,6.54s1.8,3.18,3,3.45,2.08,4.32,2.45,5.32,3.87,7,4.59,9.59,3.73,7.5,4.45,8.84a21.36,21.36,0,0,1,1.3,6.23c0,1,2.25,3.12,3.67,3s4.23-8.94,4.89-12.23,2.93-6,3.57-6,1.16-1.85,1.16-2.55,3.58-.62,3.9-1.52,1.36-6.74,2.65-7.63,5.8-3.86,7.4-4.4,5.65,2.95,6.56,4.58,1.72,5.8,1.37,6.47,2.13,4.27,4.31,4.21,2.83,2.74,2.89,3.75,2.93,3.91,3.5,5.21a11.34,11.34,0,0,1,0,5.63c-.39.79-.13,5.42.29,6.73s7.06,8,9.55,10.08,3.67-4.17,2.4-6.1-5.62-6.43-6.63-7.76-1.2-6.75-.81-8.25,3.79.83,5.2,1.92,3.29,3.52,3.34,4.34,9-4.19,9.27-9.61,3.28-11.52,3.57-12.95-.88-3.39-1.63-3.45,1.32-4.13,3.82-4.07,8.51-6.63,9.94-9.28a20.73,20.73,0,0,1,4.61-5.19,46.82,46.82,0,0,0,2.69-9.21c.34-2.59-1.47-6.65-1.68-8s-2.36-4.43-2.92-5.41-1.08-4.61-.74-5.29,2.59-1.39,2.82-2,2.82-3.37,2.64-4.58,1.6,1.57,2.78,2.58,2.45,7.46,3.92,8.17,7.35-6.85,6.63-11.73,1.72-11.12,3.14-11.69c1.08-.42,3.86-4.36,5.75-7.19a254,254,0,0,0-62.43-98.4,3.39,3.39,0,0,1-1,0l-2.17-.46c-3.63-.78-5.75-4.67-5.12-5.57a2.62,2.62,0,0,0,0-1.71c-2-1.83-4.11-3.62-6.23-5.39-1.72,0-3.52,0-4.59,0-2.18-.08-6.89-1.64-7.74-2.47s-3.7.75-3.87,2.32-5.16,2.3-5.61,3.5-3,1.28-3.54.6-5.1,1.62-7.4,2a39.41,39.41,0,0,0-7.57,2.63,12.2,12.2,0,0,0-3.85,3.8c-.38,1-3.32,2.63-4.27,3s-.75,4.65.47,5.26-2.26-.51-3.79-1.31-3.25,1.82-3.73,2.73-1.88-.55-1.83-1.82-3.78-2.31-4.3-1.29-3.18-.34-4.28-.91-5.88,4.39-7.64,6.18-10.23,3.17-11.82,2.5-3.14,3.74-1.79,4-3.44-.23-6.06,0-10.28,3.32-12.09,4.67a2,2,0,0,1-3.3-1.34c0-1-2.9-2-3.77-2.3s-2.56,5.72-4.06,6.87-3.34-4.68-6.91-5.64-9.15-4.4-10.74-4.81-4.75-3.75-5.65-4.71-5.46-1.77-6.92-1.77-6.18,2.71-7.45,3.77-3.18.87-3.81,1.25-6,5.61-8,7.24-5.7,8.69-6.86,10.37a4.82,4.82,0,0,1-3.59,2c-.69,0-1.26,1.92-1.26,2.61s-6.14,3.88-6.77,6.67.61,9.14.61,11.41,2.27,6.73,4,6.82.82,3.84.36,4.88,1.08,2.22,1,3.12-4.3,2.16-5.61,2.67-3.46,3.46-3.74,4.56-4.32,1.65-5.67,2.94a30.71,30.71,0,0,1,1.16-2.95c.78-1.49-.3-4.08-.94-4.61s-.94-7.91-2-9.49a32.88,32.88,0,0,0-4.25-4.79c-.63-.51.45-2.45.82-3.28s-3.44-1.3-4.48-.68-1.61,7.9-2,9.89,1.89,5.07,2.52,5.21.46,3.75-.87,3.86-2.57,5.38-1.88,6.57-1,3.55-1.75,4.09,5.12.23,7.84.16,4.8,1.14,4.52,1.36-5.17.94-6,2.1-4.18,3.38-4.83,4.28,1.09,2.86,2.5,2.76,3,4.86,4.1,5.77.68,3.48.21,4.19-7.1-.48-9.61.15-5.68,5.93-5.89,7.92a49.16,49.16,0,0,0,.72,9.35c.33,1.59,5.58,2.59,6.63,3.36s6.1,0,7.16.51,4.42-5.1,5.1-7.68,6-7.35,7.13-9.13,6.89-1.55,8.29-2.49.63,4.38,1.32,7.29,6.21,2.56,5.39-.18.55-3.92.77-2.92,5.55,3.14,6.56,4.68.71,4.8-.47,4.77-1.23,3.58,0,4,2.91-4.07,4.26-4.74,2.42-3.46,1.79-3.67,1.13-2.7,1.9-1.88-2.83-5.43-5.1-7.7-.67-1.26,3.55,2.25l2.92,4.09c.57.73,1.31,3,1.82,3.78l.68,1.21a27.78,27.78,0,0,1,1.07,6.41c0,1,2.29,3.12,3.66,3s2.45.67,2.16.72.91,2.76,2.3,2.82,2-3.5.58-3.59-1.17-5.23-1.35-7.45,1-4.08,1.48-4.08-.06,4.6,0,5.66a15.54,15.54,0,0,0,1.25,4.65l1.44,1.07,3.19,2.47c4.59-1.36,10.75-.31,10.52.62s3.39,1.16,3.61-.35.38,0,.38,1.1-3,5.12-3.51,7-11.09.6-15.66.25-11.29,1.22-11.8,2.57-7.62-3.13-10.89-4.49-5.83-6.35-6.5-7,.57-2.26.25-3.24-7.76-1.19-9.91-.39-13.34,2-16,3.14-6.62-.07-7.86-.29-4.19,3.43-5.68,4.09-3.41,5.83-4.23,11.5l-2,4-1.31,2.52c-3.68,2.8-7.77,12.17-9,14s-2.14,15.35-2.14,19.89,3.95,14.13,5.07,16.77,8,8.51,10.24,9.91,9.71,1.56,12.16,1.56,5.19-2.32,6.14-5.14l3.57.36,1.64.17c.08,2,5.35,3.59,6.64,4.3s4.76.17,5.78-.14,2.19,9,1.44,11.7,1.84,12.13,2.59,15,4,10.61,4.34,13.4-1.91,12.06-2.27,15.3,4,12.34,5.22,15.46a52.68,52.68,0,0,1,2.1,11.39c0,1.57,4.83,11,5.93,14.82S270,385,273.27,383.05Z"/><path class="cls-4" d="M482.23,268c.32.69,3.37-1.73,5.19-2s3-5.2,1.56-5.53-3.25-4.16-4.28-4.61-3,1.61-3,3.1-3.32,2.09-4,3.33-.6,2.13.11,2S481.92,267.29,482.23,268Z"/><path class="cls-4" d="M478.48,294.6c.91-.34-.1-5.18-2-5.59s-7.15,6.38-6.16,10.29,2.1,3.65,2.64,2.83,3.68.52,4.6.84.91-.64,0-2.07S477.59,294.93,478.48,294.6Z"/><path class="cls-4" d="M468.13,289.88c.21-1.73.54-7.14.85-8.22s-2.95-4.18-4.55-4.73-6.7,10.53-10.36,12.5-5,8.72-4,10.28,8.64,2.38,10,3.56,2.82-.19,3.62-.39.56-.71.25-.91,2.67-3.33,3.1-5.33S467.89,291.59,468.13,289.88Z"/><path class="cls-4" d="M447.3,308.33c-2.88-1.08-6.24.62-6.51,1.72S451.85,313,455.61,314s6.09,1.35,5.24.71S450.17,309.42,447.3,308.33Z"/><path class="cls-4" d="M470.31,234.58c.92-1.26-1.26-7.19-2.37-5.85s-.29,4.8.06,6S469.4,235.86,470.31,234.58Z"/><path class="cls-4" d="M477.14,247.32c.66-1.53-.81-3.23-3.26-3.74s-2.1,6.87-1,7.81S476.47,248.86,477.14,247.32Z"/><path class="cls-4" d="M489.9,293c2.93,2.06,9.48,1.11,9.69-2.86C496.69,288.27,489.65,288.59,489.9,293Z"/><path class="cls-4" d="M488.32,202.58a4.12,4.12,0,0,0-1.48,3.9h-.5c-1,0-1.09,3.86-.06,4.52s3.49-3,4.78-3.89,3.89-1.42,4.27-1.14,2.67-.4,5.07-1.51a4.18,4.18,0,0,0,1.43-1.73c-.56-2.82-1.26-5.61-1.92-8.4-1.23.9-2.61,1.87-3.24,2.43C495.38,197.94,489.92,201.48,488.32,202.58Z"/><path class="cls-4" d="M421.32,280.38l0,0C420.85,280,420.78,280,421.32,280.38Z"/><path class="cls-4" d="M439.59,297.4c-1.06-2.41-4.58-6.46-7.81-9l-1.23-2-1.33-2.22c-1.21-2.43-4.85-4.31-5.16-5s-1.47,2.12-2.71,1.3c.65.44,2,1.41,3.92,2.77,3.42,2.43,10,19,11.47,20.1S440.65,299.8,439.59,297.4Z"/><path class="cls-4" d="M387.25,270.73c-.91,1.87,4.86,5.82,5.3,4.92s-.73-5.47-1.76-6.49S388.18,268.87,387.25,270.73Z"/><path class="cls-4" d="M310.67,358.92c.23,2,4.22,3.51,5.36,3.19s4.39-6.25,4.83-8a38.3,38.3,0,0,0,.83-6.27c0-.86.53-2.83,1-3.08s1.16-2.26,1.61-4.47-2.4-12.66-2.48-14.48-2.14.94-2.66,2.79-5.72,5.61-6.88,7.19-2.41,6.89-2,7.81-.44,4.54-1,5.56S310.46,356.93,310.67,358.92Z"/><path class="cls-4" d="M123.8,431h3.48C127.9,427.2,123.61,427.82,123.8,431Z"/><path class="cls-4" d="M216.68,38.77c-1.46.18-5.24-.58-5.89-1.28s-6.31-1.3-7.95-.62-.52-4,1.76-4.48.35-3.73-2.06-3.74-8.41-.9-9.81-.59-4.15-1-5.16-1.13-8.18,2.15-11.57,2-11.75.19-13.54.7-3.14,4-2.87,5.26-8.07,1.24-10.68,1.27-16.6,3-20.25,5-6.5,7.14-5.29,7.24-2,3-4,3.69-6.64,1-7.75,2.07,1.17,1.86,1.61,2.6,1.74-.65,3,.06,5.3,1,6.38,1.44-3.46,1.3-5.6,1.45-1.65,4.34.08,4.92,6.23,1.2,6.68.48,5.33.79,7.53,1.05,3.86,5.72,4.52,6.92.81,5.36.65,6.58,3.88,3.41,4.6,2.64.51,1.89-1.11,1.76-.55,4.51,1.44,5.18.62,3.52-.52,4.39-.53,3.59-1.71,4.58,4.17,10.2,4.14,15,2.92,8.63,4.06,8.63,5.06,1,5.56,2,2.41-.7,3.15-1.49a37.75,37.75,0,0,0,3.52-5.07c1.2-2,3.89-11.55,4.24-12.57s4.84-.37,5.86-.9a49.12,49.12,0,0,0,4.78-3.52c.83-.68,7.22-3.39,9-4.64s4.64-6.67,6-7.82-.69-.81-2.4-1.93a1.82,1.82,0,0,1-.44-3c.48-.54,5.62.85,7.41,1.53s5.15-1.74,3.86-2.69-.62-.91,0-.51,1.29-3.12.62-3.78,5.2-5,4.16-9,1.61-8.23,3.19-8.28,1.13-4.59-.78-5-.11-.83.6-1.49,1.61-4.7,1.2-5.47,2.89-1.67,3.46-2.59,4.39-2.73,5.74-3S218.13,38.61,216.68,38.77Z"/><path class="cls-4" d="M249.7,42.09c-1.81-.62-5.46,1.39-5,2.51s-3-1.45-5.39-.21-3.06,5.48-2,6,1.91,3.91,1.94,4.55,4.69.19,5.88-.78,1,3.41-.14,4.59.41,3.56,1.72,3.75,3,3.24,4.38,3.21,3.6-5.16,4.12-7.08,5-.4,7,.21,2.77-7.05.57-8.21-4.94-.57-5.85-1.45a7.63,7.63,0,0,0-3.48-1.85C252.44,47.23,251.49,42.7,249.7,42.09Z"/><path class="cls-4" d="M267.41,45.75c3.57.5,7.59-2.43,8.46-3.27s-9.91-3-14-3.15-7.41.43-7.36,1.25S263.82,45.24,267.41,45.75Z"/><path class="cls-4" d="M202.16,142.48c-1-.39-1.47,3.14-1.25,4.49s3.51,1.23,4.92,1a2.75,2.75,0,0,0,2.44-2.55c-.07-1.15-2.06-6.43-2.86-6.43S203.11,142.86,202.16,142.48Z"/><path class="cls-4" d="M212.74,101.35c-.73-1.31-6.34-1.14-7.71-1.23s-5.55-1.47-6.34-2.37-1.41,3.46-2.68,4,.62,1.39,1.16.93,0,2.24-.62,3.16,3.74,1.57,4.23,3a3.61,3.61,0,0,0,4,2c1.69-.28,5.06-2,6.26-2.14S213.5,102.64,212.74,101.35Z"/><path class="cls-4" d="M330.56,69.21c1.93-1.92,9.86-4.53,10.75-6.54s-.55-3.62-1.35-3.62a3.14,3.14,0,0,0-2,1.32c-.2.33-9.3,2.47-12.08,3.82a32,32,0,0,0-7.22,4.61C317.51,70,315.59,79,314.9,80s3,4.69,4.67,5.71a6.14,6.14,0,0,0,4.53.28c.63-.2-.85-6.51-1.7-8.69S328.63,71.18,330.56,69.21Z"/><path class="cls-4" d="M320.83,45.71c3,3,4.64-1.32,7.93-.9C328.69,38.77,320.53,40.84,320.83,45.71Z"/><path class="cls-4" d="M379,46.84c-.09,1.11,8.28,2,10.74,1.58s-.52-4.24-4.1-4S379.13,45.73,379,46.84Z"/><path class="cls-4" d="M75.78,108.94c-.89.82-.12,4.93,1.57,5s4.35-6.2,6.4-4.93,3.44,1.76,3.11,1.1-6.19-3.23-6.91-3.7S76.68,108.15,75.78,108.94Z"/><path class="cls-4" d="M97.2,248c0,.7,3.65.59,4.25-.53s.27-2-.72-2S97.2,247.32,97.2,248Z"/><path class="cls-4" d="M80.94,242c1.75-.33.94,2.5,1.36,3.51s4.6,1.83,5.44,2.53,3-1.29,4.67-1.08-.55-5.8-3.36-5.63-5-2.54-5.69-2.88a43.77,43.77,0,0,1-4.87-3C77.58,234.68,70.43,234,68,234s-5.11,2.49-5.48,3.29,3.86,1.38,5.05.73,6.89.72,8.05,2.08A6.26,6.26,0,0,0,80.94,242Z"/><path class="cls-4" d="M73.3,248c0,.7,3.7.26,4.57.29s.87-.59-.07-1.34S73.3,247.32,73.3,248Z"/><path class="cls-4" d="M75.91,229c-1-.37-1.73,1.13-1.73,1.85a1.24,1.24,0,0,0,1.17,1.29C76,232.17,76.87,229.43,75.91,229Z"/><path class="cls-4" d="M83.64,229.64a3.59,3.59,0,0,0-2.37-1.29c-.48,0-.82,1.22-.73,2.7S84,230.34,83.64,229.64Z"/><path class="cls-4" d="M89.21,238.2c1.48-.72,1.66-2.5.79-2.4s-2.53-2.58-3.49-2.95-1.74,1.59-1.74,2.46.54,1.46,1.2,1.29S87.7,238.9,89.21,238.2Z"/><path class="cls-4" d="M501,296.1c-.76.41-4.48.84-5,.11s-1.23,1.5-2,1.87-.36,2.31.84,1.71c.82-.42,4.33,1.54,7.2,3.34.57-2.83,1.07-5.68,1.54-8.56C502.53,295.11,501.46,295.84,501,296.1Z"/><path class="cls-5" d="M77.44,328.87c-.35.68,4.17,5.35,5.95,6.91s5.47,9.2,6.24,11.7a18.79,18.79,0,0,1,.05,7.54c-.23,1,.85,3.07,1,3.94s-1.57,8.34-.91,11.34-3.5,12.36-3.41,17,2.2,10.71,3.05,10.25,1.14,4.24-.28,4.79-3.07,4.27-2.27,4.45-.06,3.84.16,5.31,1.44,11.12,1.71,13.51,3.71,8.27,4.43,10.26,1.45,5.76,1.74,6.33a8.81,8.81,0,0,0,.66,1.19A21.61,21.61,0,0,1,99.23,445c.83.6,6.25.22,8-.15s.15-2-.65-2.86-1.51-5.17-2.44-5.61-1.3-5.88-.49-7.09,4.06-3.14,4.41-4.15.44-5.76-.42-6.42.26-6.42-.4-9.28,5-5.47,5.31-7.74,6.41-4.71,7.79-5.85,2.58-7.65,1.92-9.06,2.25-2.52,3.55-2.52,2.75-.93,3.26-.93,2-2.89,2.86-3.55,2.56-7.54,4.06-8.66,2.78-5.28,2.78-6.5,2.31-4.84,3.07-5.93,6.45-3.7,7.47-4.1,2.56-9.57,3-12.84,2.1-7.68,2.22-8.75,1.93-2,2.27-2.36,1.7-4.53,2.58-5.49,4-4.94,4.1-5.84a36.54,36.54,0,0,1,1.07-5.08l0-2.23,0-3.57c-1-2.75-4.05-6.2-4.83-5.43s-4.3-2.44-6.1-3.12a34.76,34.76,0,0,0-7.41-1.22c-1.15,0-5.06-3.21-6.81-3.77s-6.23-1.4-7.06-1.92-1.91-7.19-5.52-9.36-9.93-7.26-10.63-9.14-7.61-5.78-9.77-7-5.37-1.46-5.77-1-3.09-3.62-4.46-4.77-5.53-2.07-5.72-1.05-2.94.49-3.59-.39-2.79.36-3.79.69-4.45,5.58-6,6.86-3.48-1.17-4.52-1.63-5,.79-6.11,1.56-3.59-5.57-3-8.49-2.61-8.71-5.09-8.87-3.23-6.24-2.74-8.5-4.45-3.66-5.68-3.8-4.34,3-4.86,4.52-11.76-2.07-10.42-8.8,6.62-13.67,7.94-14.5,8.54-1.22,10.12-.31a2.67,2.67,0,0,0,3.32-.42c.26-.42,6.14.07,7.91.78s4.26,7.49,6.08,8.33,2.49-4.38,2.78-5.65-.88-4.51-1.32-5.41,2.91-9.14,5.68-10.54,5.64-6,5.41-6.8,2.19-1.44,2.84-1.79-.1-7,1-8.44,6.23-4.49,7.88-5.18,2.85-4.9,2.27-5.63,4.2-4.85,6.71-5.64,4.66,1.44,4,1.79c.5-.28,3.94-2.07,5.42-3,1.71-1.13,0-4.25-1.09-5.18s-.43-4.51.89-4.84,2.49-3.45,2.14-4.12,5.51.54,7.74-1.12.63,4-1,6.23,1.21,4.41,2.25,4,2.16,1.2,2.38,1.84,2.47-.67,3.93,0,2.35-2,2.48-3.25-3.55-3.78-4.11-5.26-.8-10.06-.88-11.82-2.44-4.62-3.21-4.1-2.31-4.58-3.52-5.67-1.51-3.53-1.47-4.34-4.16-5.22-5.17-7.26-2.42-1.62-2.51-.69-3,1.06-4.23,1-2.19-4.76-2.19-6.52-5.43-2.05-6.32-3.47-4.42-.74-5-1.72-3.7-1.88-4.3-1.51-.34,13-.94,16.37-3.48,6.4-4.55,6.31-.41,2.42.32,2.2-2,3.71-2.41,6.3-3-.12-3.42-2.45-3-5.52-3.47-4.72-2.26-1-3-.46-5.6-2.81-7.56-3.89-3.06-7-4.16-7.56-.19-1.26-.22-2.18,3.78-4.4,4.94-5.77,5.34-6.84,7-8,3-4.29,2.68-4.87,7.11-2.88,9.12-3.58,3.73-6.27,4-7.88-1.26-4.65-2.18-5,2.79-.54,4,.09,5.06-1.13,6.57-.33,4.55,2.6,6.76,4l-.48,4.1-.9,7c-5.84,2.42-7.52,6.59-5.47,6.51s11.36,4,14,5.92,3.46-2.73,4.24-4.26.52-6-.1-6.87,3.05-.58,4.07.41,2.25-1,3-1.37,1.19-4.19,1.62-4.95-1.75-1.57-1.81-2.52-4.26-2.78-5.6-3.44-1.7-3.53-1-4-.46-4.18-1.15-5.4-5-2.2-6.5-2.2-3-3.38-3.79-3.87-6.47-1.11-7.83-.7-3.94-4-6.29-2.64-4.75-1.57-5.81-2.15S76.67,76.86,76.71,81s2.15,8.16,3,8.27-.2,3.87-1.16,4.93-3.25-1.13-2.37-2.07-2.39-5.28-3.52-7c-.79-1.28-3.65-2.41-5.58-3.18-1.13,1.22-2.24,2.48-3.33,3.73.42,1.51.93,3.47.44,5-.81,2.53-2.91,2.91-3,1.82-.06-.49-1.13-.85-2.39-1-1.14,1.37-2.24,2.79-3.36,4.18s-2.19,2.75-3.26,4.15-2.28,3-3.38,4.53c-1,1.36-2,2.74-2.94,4.12-1.45,2.07-2.87,4.15-4.24,6.24s-2.64,4-3.91,6.08c-1.08,1.76-2.13,3.56-3.18,5.35-.7,1.23-1.42,2.47-2.13,3.71-1,1.87-2.08,3.76-3.08,5.66-.57,1.07-1.12,2.16-1.67,3.26-2.29,4.48-4.48,9-6.49,13.66-.06.13-.13.25-.18.38-1,2.27-1.93,4.59-2.85,6.91-.36.87-.71,1.75-1.05,2.63-.91,2.38-1.81,4.77-2.65,7.17-.15.41-.27.81-.43,1.22A246.21,246.21,0,0,0,6.79,195.4c-.14.57-.27,1.13-.39,1.69A250,250,0,0,0,1.81,223.7a.57.57,0,0,1,0,.19,15.33,15.33,0,0,1,3,4.24c.7,2.23,4.57,3.69,5.3,4.15s1-4.27.45-5.49.94-2,.91-1.05,3.64,5,4.84,6.55,2.46,11.16,3.61,13.23,12.31,6.38,15.92,7.12,8.11,4.78,8.83,5.94,5.46,1.75,6.49,2.2,3.47,3.72,4.49,4.39a5.53,5.53,0,0,1,1.82,3.11c0,.51,6.29,2.9,7.82,4.58s4.05,1.22,4.53.51,1.72,3.35,2.38,4.75.79,4.86.3,5.41S71,290.4,70,291.67s-3.31,10.48-2.83,12.3,3.45,5.58,4.73,6.14a1.47,1.47,0,0,1-.27,2.66c-1,.12-.54,8.93,1.83,10.24S77.79,328.19,77.44,328.87Z"/><line class="cls-5" x1="107.29" y1="174.47" x2="107.28" y2="174.47"/><path class="cls-5" d="M89.95,67.57c3-.51,8.09-1.35,8.43-2.2a5.24,5.24,0,0,0-.29-3.51c.48,0,1,0,1.46,0,1.16,0,3.07-6.31,4.29-7.79s8.15-3.65,9.8-4.65,5.27-4.48,6.66-4.88,3.42-3.66,3.1-4.32,4.7-3.68,6.61-4.48,2.88-3,2.18-3.12c-.47-.07-11.06,5.47-20.75,11l-.27.2c-2.78,1.89-5.52,3.84-8.21,5.83-1.83,1.36-3.61,2.78-5.42,4.18-.95.75-1.9,1.48-2.84,2.23-2.12,1.72-4.24,3.48-6.32,5.28l-1.31,1.14q-3.46,3-6.83,6.17C83.29,68.47,88,67.91,89.95,67.57Z"/><path class="cls-5" d="M250.34,191.34c-1.18-.05-1.23,3.58,0,4,.91.28,2-2,3.12-3.56V177.63c-.1-.1-.19-.21-.28-.31-1.5-1.5-1.28-1.54.28-.38V90.23c-1.29,1.2-2.54,2.33-3.32,2.94-2.08,1.63-5.7,8.69-6.86,10.37a4.82,4.82,0,0,1-3.59,2c-.69,0-1.26,1.92-1.26,2.61s-6.14,3.88-6.77,6.67.61,9.14.61,11.41,2.27,6.73,4,6.82.82,3.84.36,4.88,1.08,2.22,1,3.12-4.3,2.16-5.61,2.67-3.46,3.46-3.74,4.56-4.32,1.65-5.67,2.94a30.71,30.71,0,0,1,1.16-2.95c.78-1.49-.3-4.08-.94-4.61s-.94-7.91-2-9.49a32.88,32.88,0,0,0-4.25-4.79c-.63-.51.45-2.45.82-3.28s-3.44-1.3-4.48-.68-1.61,7.9-2,9.89,1.89,5.07,2.52,5.21.46,3.75-.87,3.86-2.57,5.38-1.88,6.57-1,3.55-1.75,4.09,5.12.23,7.84.16,4.8,1.14,4.52,1.36-5.17.94-6,2.1-4.18,3.38-4.83,4.28,1.09,2.86,2.5,2.76,3,4.86,4.1,5.77.68,3.48.21,4.19-7.1-.48-9.61.15-5.68,5.93-5.89,7.92a49.16,49.16,0,0,0,.72,9.35c.33,1.59,5.58,2.59,6.63,3.36s6.1,0,7.16.51,4.42-5.1,5.1-7.68,6-7.35,7.13-9.13,6.89-1.55,8.29-2.49.63,4.38,1.32,7.29,6.21,2.56,5.39-.18.55-3.92.77-2.92,5.55,3.14,6.56,4.68S251.52,191.37,250.34,191.34Z"/><path class="cls-5" d="M253.49,208.48c-1.08-.57-2.1-1.07-2.87-1.4-3.27-1.38-5.83-6.35-6.5-7s.57-2.26.25-3.24-7.76-1.19-9.91-.39-13.34,2-16,3.14-6.62-.07-7.86-.29-4.19,3.43-5.68,4.09-3.41,5.83-4.23,11.5l-2,4-1.31,2.52c-3.68,2.8-7.77,12.17-9,14s-2.14,15.35-2.14,19.89,3.95,14.13,5.07,16.77,8,8.51,10.24,9.91,9.71,1.56,12.16,1.56,5.19-2.32,6.14-5.14l3.57.36,1.64.17c.08,2,5.35,3.59,6.64,4.3s4.76.17,5.78-.14,2.19,9,1.44,11.7,1.84,12.13,2.59,15,4,10.61,4.34,13.4-1.91,12.06-2.27,15.3,4,12.34,5.22,15.46a52.68,52.68,0,0,1,2.1,11.39c0,.8,1.24,3.61,2.61,6.7Z"/><path class="cls-5" d="M123.8,431h3.48C127.9,427.2,123.61,427.82,123.8,431Z"/><path class="cls-5" d="M194,84.37c1.78.71,5.15-1.74,3.86-2.69s-.62-.91,0-.51,1.29-3.12.62-3.78,5.2-5,4.16-9,1.61-8.23,3.19-8.28,1.13-4.59-.78-5-.11-.83.6-1.49,1.61-4.7,1.2-5.47,2.89-1.67,3.46-2.59,4.39-2.73,5.74-3,2.06-3.87.61-3.71-5.24-.58-5.89-1.28-6.31-1.3-7.95-.62-.52-4,1.76-4.48.35-3.73-2.06-3.74-8.41-.9-9.81-.59-4.15-1-5.16-1.13-8.18,2.15-11.57,2-11.75.19-13.54.7-3.14,4-2.87,5.26-8.07,1.24-10.68,1.27-16.6,3-20.25,5-6.5,7.14-5.29,7.24-2,3-4,3.69-6.64,1-7.75,2.07,1.17,1.86,1.61,2.6,1.74-.65,3,.06,5.3,1,6.38,1.44-3.46,1.3-5.6,1.45-1.65,4.34.08,4.92,6.23,1.2,6.68.48,5.33.79,7.53,1.05,3.86,5.72,4.52,6.92.81,5.36.65,6.58,3.88,3.41,4.6,2.64.51,1.89-1.11,1.76-.55,4.51,1.44,5.18.62,3.52-.52,4.39-.53,3.59-1.71,4.58,4.17,10.2,4.14,15,2.92,8.63,4.06,8.63,5.06,1,5.56,2,2.41-.7,3.15-1.49a37.75,37.75,0,0,0,3.52-5.07c1.2-2,3.89-11.55,4.24-12.57s4.84-.37,5.86-.9a49.12,49.12,0,0,0,4.78-3.52c.83-.68,7.22-3.39,9-4.64s4.64-6.67,6-7.82-.69-.81-2.4-1.93a1.82,1.82,0,0,1-.44-3C187.09,82.3,192.22,83.69,194,84.37Z"/><path class="cls-5" d="M249.7,42.09c-1.81-.62-5.46,1.39-5,2.51s-3-1.45-5.39-.21-3.06,5.48-2,6,1.91,3.91,1.94,4.55,4.69.19,5.88-.78,1,3.41-.14,4.59.41,3.56,1.72,3.75,3,3.24,4.38,3.21c.67,0,1.57-1.33,2.38-2.85V47.38h0C252.44,47.23,251.49,42.7,249.7,42.09Z"/><path class="cls-5" d="M205.83,148a2.75,2.75,0,0,0,2.44-2.55c-.07-1.15-2.06-6.43-2.86-6.43s-2.3,3.87-3.25,3.5-1.47,3.14-1.25,4.49S204.42,148.2,205.83,148Z"/><path class="cls-5" d="M200.78,108.84a3.61,3.61,0,0,0,4,2c1.69-.28,5.06-2,6.26-2.14s2.5-6.09,1.75-7.38-6.34-1.14-7.71-1.23-5.55-1.47-6.34-2.37-1.41,3.46-2.68,4,.62,1.39,1.16.93,0,2.24-.62,3.16S200.29,107.43,200.78,108.84Z"/><path class="cls-5" d="M75.78,108.94c-.89.82-.12,4.93,1.57,5s4.35-6.2,6.4-4.93,3.44,1.76,3.11,1.1-6.19-3.23-6.91-3.7S76.68,108.15,75.78,108.94Z"/><path class="cls-5" d="M97.2,248c0,.7,3.65.59,4.25-.53s.27-2-.72-2S97.2,247.32,97.2,248Z"/><path class="cls-5" d="M80.94,242c1.75-.33.94,2.5,1.36,3.51s4.6,1.83,5.44,2.53,3-1.29,4.67-1.08-.55-5.8-3.36-5.63-5-2.54-5.69-2.88a43.77,43.77,0,0,1-4.87-3C77.58,234.68,70.43,234,68,234s-5.11,2.49-5.48,3.29,3.86,1.38,5.05.73,6.89.72,8.05,2.08A6.26,6.26,0,0,0,80.94,242Z"/><path class="cls-5" d="M73.3,248c0,.7,3.7.26,4.57.29s.87-.59-.07-1.34S73.3,247.32,73.3,248Z"/><path class="cls-5" d="M75.91,229c-1-.37-1.73,1.13-1.73,1.85a1.24,1.24,0,0,0,1.17,1.29C76,232.17,76.87,229.43,75.91,229Z"/><path class="cls-5" d="M83.64,229.64a3.59,3.59,0,0,0-2.37-1.29c-.48,0-.82,1.22-.73,2.7S84,230.34,83.64,229.64Z"/><path class="cls-5" d="M89.21,238.2c1.48-.72,1.66-2.5.79-2.4s-2.53-2.58-3.49-2.95-1.74,1.59-1.74,2.46.54,1.46,1.2,1.29S87.7,238.9,89.21,238.2Z"/><path class="cls-2" d="M98.38,62.43c-.25-.26-1.32.51-.85,1C97.77,63.72,98.8,63,98.38,62.43Z"/><path class="cls-2" d="M126.46,146.09c-.21-.3-1.29.5-.88,1C125.84,147.37,126.92,146.59,126.46,146.09Z"/></g></g></g></svg>