<svg xmlns="http://www.w3.org/2000/svg" viewBox="0 0 507.84 507.84"><defs><style>.cls-1{opacity:0.6;}.cls-2{fill:#d4aeba;}.cls-3,.cls-5{fill:#471530;}.cls-3{opacity:0.3;}.cls-4{fill:#80456b;}.cls-6{fill:#fff;}.cls-7{fill:#e5cfd7;}.cls-8{fill:#0e303f;}.cls-9{fill:#a52878;}</style></defs><title>gwtd3Asset 23</title><g id="Layer_2" data-name="Layer 2"><g id="Layer_1-2" data-name="Layer 1"><g class="cls-1"><path class="cls-2" d="M370.35,125.79,507.66,263.1c.11-3,.18-6.1.18-9.18C507.84,113.69,394.16,0,253.92,0S0,113.69,0,253.92,113.7,507.84,253.92,507.84c2.92,0,5.83-.07,8.73-.17L125.56,370.59Z"/><path class="cls-2" d="M507.66,263.1,370.35,125.79,125.56,370.59,262.65,507.68C395.79,503.18,502.92,396.18,507.66,263.1Z"/><path class="cls-3" d="M507.66,263.1,370.35,125.79,125.56,370.59,262.65,507.68C395.79,503.18,502.92,396.18,507.66,263.1Z"/><path class="cls-4" d="M427.06,253.92A173.13,173.13,0,1,1,253.92,80.79,173.14,173.14,0,0,1,427.06,253.92Z"/><path class="cls-5" d="M253.92,80.79a173.13,173.13,0,1,1,0,346.26"/><path class="cls-6" d="M388.57,253.92A134.65,134.65,0,1,1,253.92,119.26,134.65,134.65,0,0,1,388.57,253.92Z"/><path class="cls-7" d="M133.69,263.54a134.63,134.63,0,0,1,202-116.61,134.64,134.64,0,1,0-149,223.6A134.42,134.42,0,0,1,133.69,263.54Z"/><path class="cls-8" d="M278,253.92a24.05,24.05,0,1,1-24.05-24.05A24,24,0,0,1,278,253.92Z"/><path class="cls-8" d="M311.17,156.67a1.94,1.94,0,0,1-1.68-2.91l3.71-6.4a1.94,1.94,0,0,1,3.37,1.94l-3.71,6.4a2,2,0,0,1-1.68,1Z"/><path class="cls-8" d="M192.95,361.49a1.94,1.94,0,0,1-1.68-2.91l3.68-6.43a1.94,1.94,0,1,1,3.37,1.93l-3.68,6.43a1.93,1.93,0,0,1-1.68,1Z"/><path class="cls-8" d="M359.51,316.82a1.94,1.94,0,0,1-1-.26l-6.38-3.68a1.94,1.94,0,1,1,1.94-3.37l6.38,3.68a1.94,1.94,0,0,1-1,3.63Z"/><path class="cls-8" d="M154.77,198.59a1.92,1.92,0,0,1-1-.26l-6.44-3.69a1.94,1.94,0,0,1,1.94-3.37l6.44,3.69a1.94,1.94,0,0,1-1,3.63Z"/><path class="cls-8" d="M196.67,156.67a2,2,0,0,1-1.68-1l-3.68-6.4a1.94,1.94,0,1,1,3.37-1.93l3.68,6.4a1.94,1.94,0,0,1-1.68,2.91Z"/><path class="cls-8" d="M315,361.49a1.94,1.94,0,0,1-1.68-1l-3.74-6.43a1.94,1.94,0,1,1,3.35-2l3.74,6.43a1.94,1.94,0,0,1-1.68,2.92Z"/><path class="cls-8" d="M148.33,316.82a1.94,1.94,0,0,1-1-3.63l6.44-3.68a1.94,1.94,0,0,1,1.92,3.38l-6.44,3.68a1.93,1.93,0,0,1-1,.25Z"/><path class="cls-8" d="M353.13,198.59a1.94,1.94,0,0,1-1-3.62l6.38-3.69a1.94,1.94,0,1,1,1.93,3.36l-6.38,3.69a1.9,1.9,0,0,1-1,.26Z"/><path class="cls-8" d="M139.39,255.85H132a1.94,1.94,0,1,1,0-3.89h7.4a1.94,1.94,0,1,1,0,3.89Z"/><path class="cls-8" d="M368.46,255.85a1.94,1.94,0,0,1,0-3.89l7.45,0h0a1.94,1.94,0,0,1,0,3.89l-7.45,0Z"/><path class="cls-8" d="M253.9,377.8h0a1.94,1.94,0,0,1-1.93-2l0-7.42a1.94,1.94,0,0,1,1.94-1.93h0a1.94,1.94,0,0,1,1.93,2l0,7.42a1.94,1.94,0,0,1-1.94,1.93Z"/><path class="cls-8" d="M253.92,141.31a2,2,0,0,1-1.94-1.94V132c0-2.14,3.89-2.14,3.89,0v7.37a2,2,0,0,1-1.94,1.94Z"/><path class="cls-8" d="M253.95,260.34a6.41,6.41,0,0,1-6.41-6.41V158.49a6.41,6.41,0,0,1,12.82,0v95.43a6.41,6.41,0,0,1-6.41,6.41Z"/><path class="cls-8" d="M212.17,302.1a6.41,6.41,0,0,1-4.54-10.95L247.76,251a6.41,6.41,0,0,1,9.07,9.07L216.7,300.23a6.4,6.4,0,0,1-4.54,1.88Z"/><path class="cls-6" d="M268.75,253.92a14.83,14.83,0,1,1-14.83-14.83A14.82,14.82,0,0,1,268.75,253.92Z"/><path class="cls-9" d="M261.26,253.92a7.34,7.34,0,1,1-7.34-7.35A7.34,7.34,0,0,1,261.26,253.92Z"/><path class="cls-9" d="M253.95,257.13a3.2,3.2,0,0,1-.93-6.27l83.21-25.14a3.21,3.21,0,0,1,1.86,6.14L254.88,257a3.25,3.25,0,0,1-.93.13Z"/></g></g></g></svg>