<svg xmlns="http://www.w3.org/2000/svg" viewBox="0 0 190.93 326.9"><defs><style>.cls-1{fill:#87586d;stroke:#471530;stroke-miterlimit:10;stroke-width:2px;}.cls-2{fill:#fff;}.cls-3{fill:#471530;}.cls-4{fill:#e0cdd4;}</style></defs><title>Marker</title><g id="Layer_2" data-name="Layer 2"><g id="Layer_1-2" data-name="Layer 1"><path class="cls-1" d="M95.42,1A94.4,94.4,0,0,0,1,95.41c0,89.44,94.42,229.68,94.42,229.68s98.3-151.71,94.4-229.68C187.21,43.32,147.56,1,95.42,1Z"/><path class="cls-2" d="M95.45,142.27a46.86,46.86,0,1,1,46.86-46.87A46.87,46.87,0,0,1,95.45,142.27Z"/><path class="cls-3" d="M95.46,1s-.06,43,0,43a51.42,51.42,0,1,1,0,102.84c-.6,0,.47-.07-.12-.09l.17,174.64,0,3.7s94.4-139.57,94.4-229.68A94.38,94.38,0,0,0,95.46,1Z"/><path class="cls-4" d="M95.46,48.55a46.86,46.86,0,0,1,0,93.72"/></g></g></svg>