<svg xmlns="http://www.w3.org/2000/svg" viewBox="0 0 400.56 601.76"><defs><style>.cls-1{opacity:0.1;}.cls-2{fill:#471530;}</style></defs><title>gwtd3Asset 2</title><g id="Layer_2" data-name="Layer 2"><g id="Layer_1-2" data-name="Layer 1"><g class="cls-1"><path class="cls-2" d="M78.26,258q-.94-17.69,11.63-27.48t48.92-20l85.7-27v-55a454.65,454.65,0,0,0-64.27-4.65,491.09,491.09,0,0,0-70.8,5.59,645.73,645.73,0,0,0-67.06,13L0,29.8Q99.67,0,186.3,0q79.17,0,125.76,14T379.6,58.68q21,30.75,21,82.91,0,44.73-16.77,72.67t-58.7,49.36q-41.91,21.42-123,44.71l-4.65,81H91.29Zm0,199.81Q95,439.69,143.46,439.67t65.2,18.17q16.77,18.16,16.77,63.81,0,44.73-16.77,62.41t-65.2,17.7q-48.44,0-65.21-17.7T61.48,521.66Q61.48,476,78.24,457.85Z"/></g></g></g></svg>