<svg xmlns="http://www.w3.org/2000/svg" viewBox="0 0 514.41 514.43"><defs><style>.cls-1{fill:#d4aeba;}.cls-2{fill:#471530;opacity:0.2;}.cls-3{fill:#230b19;opacity:0.25;}</style></defs><title>gwtd3Asset 18</title><g id="Layer_2" data-name="Layer 2"><g id="Layer_1-2" data-name="Layer 1"><polygon class="cls-1" points="208.59 318.63 208.97 318.63 208.54 318.2 208.59 318.63"/><path class="cls-2" d="M239.92,446.21q29.1,0,39.17-10.63t10.08-37.49q0-27.42-10.08-38.33t-39.17-10.92h-.73L209,318.62h63.41l2.79-48.68q48.68-14,73.86-26.86t35.26-29.65q10.08-16.79,10.08-43.65,0-31.33-12.59-49.8c-.79-1.15-1.64-2.27-2.51-3.36L514.34,251.7C511.4,112.19,397.41,0,257.2,0,115.15,0,0,115.16,0,257.21S115.15,514.43,257.2,514.43c7.29,0,14.51-.32,21.65-.92l-76.1-76.1Q213.48,446.21,239.92,446.21Z"/><path class="cls-3" d="M514.41,257.21c0-1.85,0-3.68-.07-5.52L379.26,116.62c.88,1.09,1.73,2.21,2.51,3.36q12.59,18.47,12.59,49.8,0,26.87-10.08,43.65T349,243.09Q323.86,256,275.17,269.95l-2.79,48.68H209l30.23,30.23h.73q29.1,0,39.17,10.92t10.08,38.33q0,26.87-10.08,37.49t-39.17,10.63q-26.46,0-37.17-8.8l76.1,76.1C410.77,502.52,514.41,392,514.41,257.21Z"/><path class="cls-1" d="M394.37,169.78q0,26.87-10.08,43.65T349,243.09Q323.86,256,275.17,269.95l-2.79,48.68H209l-.42-.42-3.75-37.76-4-40.71q-.56-10.63,7-16.51t29.38-12L288.61,195v-33A273.14,273.14,0,0,0,250,159.15a295,295,0,0,0-42.53,3.36,387.87,387.87,0,0,0-40.28,7.83l-13.43-67.71q59.88-17.9,111.91-17.9,47.56,0,75.54,8.39,25.35,7.61,38.06,23.5c.88,1.09,1.73,2.21,2.51,3.36Q394.36,138.45,394.37,169.78Zm-115.28,190Q269,348.85,239.92,348.84h-.73q-28.48.14-38.44,10.91t-10.07,38.33q0,26.87,10.07,37.49a21.62,21.62,0,0,0,2,1.83q10.73,8.79,37.17,8.8,29.1,0,39.17-10.63t10.08-37.49Q289.16,370.67,279.09,359.76Z"/></g></g></svg>