<svg xmlns="http://www.w3.org/2000/svg" viewBox="0 0 514.41 514.43"><defs><style>.cls-1{opacity:0.6;}.cls-2{fill:#5a90aa;}.cls-3{fill:#21759b;}.cls-4{fill:#2c5871;}.cls-5{fill:#0e303f;}.cls-6{fill:#d4aeba;}.cls-7{fill:#80456b;}.cls-8{fill:#174f78;}.cls-9{fill:#fff;}.cls-10{fill:#103754;}.cls-11{fill:#d1ecfb;}</style></defs><title>gwtd3Asset 4</title><g id="Layer_2" data-name="Layer 2"><g id="Layer_1-2" data-name="Layer 1"><g class="cls-1"><ellipse class="cls-2" cx="257.2" cy="257.21" rx="257.21" ry="257.21"/><path class="cls-3" d="M257.93,105.13c-1.2-1.39-2.43-2.72-3.67-4-.44-.46-.86-1-1.3-1.43-2.06-2.1-4.17-4.1-6.32-6l-.33.29h0c-2,1.79-4,3.67-6,5.68-.34.35-.66.75-1,1.11-1.73,1.81-3.43,3.66-5.08,5.63-.26.31-.51.66-.77,1-1.72,2.08-3.41,4.23-5,6.49-.15.2-.28.41-.42.62q-2.61,3.63-5.08,7.53l-.12.2c-20.31,32.32-33,78.28-33,129.36a295.46,295.46,0,0,0,3.69,46.89,92,92,0,0,0-32.57,108.6c0-.1.09-.19.12-.28L268.37,514.15c106.25-4.44,195.76-73.61,230.1-169.12L258.25,104.81Z"/><path class="cls-4" d="M246.65,348.5a92.06,92.06,0,0,1,85.76,58.59,92.07,92.07,0,1,0-171.51,0A92.07,92.07,0,0,1,246.65,348.5Z"/><path class="cls-5" d="M270.16,284.59v67a92.22,92.22,0,0,1,62.25,55.49,92.05,92.05,0,0,0-62.25-122.49Z"/><path class="cls-6" d="M246.65,360.46a107.3,107.3,0,0,1,32.49,5c15.21-30.79,24.39-70.5,24.39-113.9,0-68.93-23.13-128.62-56.88-157.89-33.74,29.28-56.88,89-56.88,157.89,0,43.4,9.18,83.11,24.4,113.9A107.23,107.23,0,0,1,246.65,360.46Z"/><path class="cls-7" d="M246.65,93.7c-.11.1-.21.21-.33.31V360.48h.33a107.3,107.3,0,0,1,32.49,5c15.21-30.79,24.39-70.5,24.39-113.9C303.52,182.66,280.39,123,246.65,93.7Z"/><path class="cls-4" d="M246.65,159c14.3,0,28.31.5,42,1.41-10-28.35-24.58-51.58-42-66.67-17.4,15.09-31.94,38.32-42,66.67C218.34,159.46,232.35,159,246.65,159Z"/><path class="cls-5" d="M246.32,94v65h.33c14.3,0,28.31.5,42,1.41-10-28.35-24.58-51.58-42-66.67Z"/><path class="cls-4" d="M246.65,276c-7.24,12.18-12.2,37-12.2,65.68s5,53.49,12.2,65.67c7.24-12.18,12.21-37,12.21-65.67S253.89,288.15,246.65,276Z"/><path class="cls-5" d="M246.32,276.56V406.71c.11.19.22.41.33.6,7.24-12.18,12.21-37,12.21-65.67s-5-53.49-12.21-65.68C246.54,276.15,246.43,276.37,246.32,276.56Z"/><path class="cls-8" d="M246.65,251.59a32,32,0,1,1,32-32,32,32,0,0,1-32,32Z"/><path class="cls-9" d="M246.65,197.42a22.21,22.21,0,1,0,22.21,22.21,22.23,22.23,0,0,0-22.21-22.21Z"/><path class="cls-10" d="M246.65,187.67h-.33v9.75h.33a22.21,22.21,0,1,1,0,44.42l-.33,0v9.75l.33,0a32,32,0,1,0,0-63.92Z"/><path class="cls-11" d="M268.85,219.63a22.23,22.23,0,0,0-22.21-22.21h-.33v44.39l.33,0A22.23,22.23,0,0,0,268.85,219.63Z"/></g></g></g></svg>